<?xml version="1.0" standalone="no"?>
<!DOCTYPE svg PUBLIC "-//W3C//DTD SVG 20010904//EN"
 "http://www.w3.org/TR/2001/REC-SVG-20010904/DTD/svg10.dtd">
<svg version="1.0" xmlns="http://www.w3.org/2000/svg"
 width="1119.000000pt" height="2089.000000pt" viewBox="0 0 1119.000000 2089.000000"
 preserveAspectRatio="xMidYMid meet">
<metadata>
Created by potrace 1.12, written by Peter Selinger 2001-2015
</metadata>
<g transform="translate(0.000000,2089.000000) scale(0.100000,-0.100000)"
fill="#000000" stroke="none">
<path d="M3750 20873 c-14 -2 -50 -13 -80 -24 -175 -65 -303 -205 -373 -407
-41 -122 -49 -296 -18 -424 52 -220 184 -385 374 -466 l62 -27 475 -5 475 -5
3 -562 2 -563 -35 0 c-19 0 -35 -1 -35 -3 0 -2 14 -43 30 -92 17 -49 30 -92
30 -97 0 -4 -306 -8 -680 -8 -667 0 -680 0 -700 -20 -20 -20 -20 -33 -20 -997
0 -538 4 -983 8 -989 21 -33 49 -34 726 -34 l676 0 0 -319 0 -319 -32 -12 -33
-13 33 -10 32 -10 0 -218 0 -219 -35 0 c-19 0 -35 -1 -35 -3 0 -2 11 -35 23
-73 13 -38 27 -81 31 -96 l6 -28 -387 0 c-349 0 -391 -2 -423 -18 -37 -18 -45
-31 -433 -715 -121 -215 -140 -254 -140 -291 1 -36 37 -106 262 -502 144 -252
273 -470 287 -484 l24 -25 415 -3 415 -3 0 -374 c0 -326 -2 -376 -16 -389 -14
-14 -113 -16 -944 -16 l-929 0 -20 -26 -21 -27 0 -4104 0 -4104 25 -24 c23
-24 29 -25 160 -25 l135 0 0 -30 c0 -16 4 -30 8 -30 5 0 42 11 82 25 40 14 79
25 87 25 11 0 13 -87 13 -475 0 -462 1 -476 20 -495 20 -20 33 -20 705 -20
l685 0 -2 -562 -3 -563 -32 -3 -31 -3 24 -77 c13 -42 27 -87 30 -99 l6 -23
-456 0 c-435 0 -460 -1 -519 -21 -203 -67 -352 -242 -408 -477 -31 -128 -23
-302 18 -424 70 -204 194 -338 378 -410 l60 -23 965 0 965 0 60 23 c184 72
308 206 378 410 41 122 49 296 18 424 -34 144 -112 279 -207 360 -71 61 -123
91 -201 117 -59 20 -84 21 -519 21 l-456 0 6 23 c3 12 17 57 30 99 l24 77 -31
3 -32 3 -3 562 -2 563 685 0 c672 0 685 0 705 20 20 20 20 33 20 998 0 537 -4
982 -8 988 -21 33 -49 34 -730 34 l-680 0 28 88 29 87 -30 3 -29 3 0 219 c0
215 0 219 22 234 19 13 59 16 235 16 183 0 213 2 213 15 0 13 -32 15 -224 15
-223 0 -225 0 -253 -24 l-28 -24 -3 -226 -3 -225 -29 -3 -29 -3 29 -88 28 -87
-680 0 c-681 0 -709 -1 -730 -34 -4 -6 -8 -223 -8 -482 0 -259 -3 -473 -6
-476 -3 -4 -44 7 -92 23 -47 16 -87 29 -89 29 -2 0 -3 -13 -3 -30 l0 -30 -129
0 c-123 0 -131 1 -145 22 -14 20 -16 426 -16 4100 0 4065 0 4078 20 4098 20
20 33 20 940 20 682 0 926 3 945 12 19 9 28 9 37 0 9 -9 184 -12 688 -12 643
0 678 -1 693 -18 15 -16 17 -55 17 -335 l0 -317 -30 0 c-16 0 -30 -3 -30 -7 0
-5 11 -44 25 -88 14 -44 25 -81 25 -82 0 -2 -308 -3 -685 -3 l-686 0 -24 -25
-25 -24 0 -974 0 -974 23 -21 23 -22 692 0 692 0 0 -405 0 -405 -30 0 c-16 0
-30 -4 -30 -8 0 -5 11 -42 25 -82 14 -40 25 -77 25 -82 0 -4 -181 -8 -402 -8
-375 0 -405 -1 -434 -19 -23 -14 -90 -124 -297 -489 -222 -391 -267 -476 -267
-509 0 -42 -5 -32 335 -633 189 -332 202 -354 240 -371 37 -17 73 -19 438 -19
l397 0 0 -304 c0 -264 -2 -307 -16 -320 -13 -14 -49 -16 -235 -16 -188 0 -219
-2 -219 -15 0 -13 32 -15 229 -15 l230 0 20 26 c20 26 21 38 21 335 l0 308
409 3 c398 3 410 4 438 24 42 32 563 948 563 992 0 41 26 -8 -281 532 -196
346 -266 460 -288 473 -26 15 -68 17 -430 17 -326 0 -401 2 -401 13 0 8 11 47
25 87 14 40 25 75 25 77 0 2 -13 3 -30 3 l-30 0 0 405 0 405 689 0 c663 0 690
1 712 19 l24 19 0 982 0 982 -24 19 c-22 18 -49 19 -707 19 -376 0 -684 4
-684 8 0 5 11 42 25 82 14 40 25 77 25 82 0 4 -13 8 -30 8 l-30 0 0 325 0 326
-25 24 -24 25 -671 0 c-444 0 -678 4 -691 10 -18 10 -19 25 -19 390 l0 379
415 3 415 3 25 25 c14 14 144 234 289 490 l264 465 613 0 614 0 3 -32 c2 -18
4 -33 5 -33 1 0 42 13 92 29 49 16 93 27 97 25 5 -3 8 -213 8 -468 0 -383 2
-465 14 -482 14 -18 36 -19 709 -24 l695 -5 -28 -87 -28 -88 29 0 29 0 0
-2275 c0 -2268 0 -2275 20 -2275 20 0 20 7 20 1679 0 1483 2 1680 15 1685 8 3
15 17 15 31 0 14 -7 28 -15 31 -13 5 -15 77 -15 565 l0 559 29 0 29 0 -28 88
-28 87 695 5 c673 5 695 6 709 24 12 17 14 169 14 997 l0 978 -26 20 c-26 21
-34 21 -705 21 l-679 0 0 316 0 316 -29 29 -29 29 -2031 0 -2031 0 0 35 c0 19
-1 35 -3 35 -2 0 -42 -13 -90 -29 l-87 -30 0 310 0 309 676 0 c677 0 705 1
726 34 4 6 8 451 8 989 0 964 0 977 -20 997 -20 20 -33 20 -700 20 -374 0
-680 4 -680 8 0 5 14 48 30 97 17 49 30 90 30 92 0 2 -16 3 -35 3 l-35 0 2
563 3 562 475 5 475 5 62 27 c190 81 322 246 374 466 31 128 23 302 -18 424
-69 201 -188 331 -373 409 l-55 24 -950 1 c-522 1 -961 0 -975 -3z m1965 -43
c250 -102 396 -329 399 -620 3 -305 -150 -547 -404 -641 l-65 -24 -945 0 -945
0 -65 24 c-254 94 -407 336 -404 641 2 245 110 452 298 570 46 29 145 67 191
73 17 3 446 4 955 3 l925 -1 60 -25z m383 -2676 l22 -15 0 -961 c0 -881 -1
-963 -17 -980 -15 -17 -72 -18 -1401 -18 -1275 0 -1387 1 -1404 17 -17 15 -18
59 -18 979 l0 963 22 15 c20 14 169 16 1398 16 1229 0 1378 -2 1398 -16z
m2860 -2706 c9 -9 12 -93 12 -315 l0 -303 -679 0 c-671 0 -679 0 -705 -21
l-26 -20 0 -470 c0 -380 -2 -469 -13 -469 -7 0 -52 13 -100 29 l-87 30 0 -35
0 -34 -617 0 -618 1 -93 167 c-51 92 -173 307 -270 477 -154 270 -182 312
-212 327 -32 16 -74 18 -422 18 -214 0 -388 1 -388 3 0 2 13 46 30 97 16 52
30 96 30 98 0 1 -16 2 -35 2 l-35 0 0 205 c0 164 3 205 13 205 8 0 47 -11 87
-25 40 -14 75 -25 77 -25 2 0 3 16 3 35 l0 35 2018 0 c1556 0 2021 -3 2030
-12z m-3399 -675 c16 -16 125 -199 243 -408 291 -514 298 -528 298 -559 0 -33
-508 -930 -546 -963 l-25 -23 -829 0 -829 0 -25 23 c-38 33 -546 930 -546 963
0 31 7 45 298 559 118 209 227 392 243 408 l29 27 830 0 830 0 29 -27z m4851
8 c7 -13 10 -334 10 -971 0 -637 -3 -958 -10 -971 -11 -19 -37 -19 -1410 -19
-1373 0 -1399 0 -1410 19 -7 13 -10 334 -10 971 0 637 3 958 10 971 11 19 37
19 1410 19 1373 0 1399 0 1410 -19z m-2882 -3687 l22 -15 0 -968 c0 -739 -3
-970 -12 -979 -9 -9 -335 -12 -1404 -12 -1282 0 -1393 1 -1405 17 -12 13 -15
178 -17 962 -2 520 -1 955 2 967 3 11 16 26 28 32 16 7 422 11 1393 11 1225 1
1373 -1 1393 -15z m-552 -3033 c45 -27 554 -927 554 -979 0 -28 -53 -129 -256
-485 -141 -247 -267 -461 -279 -475 l-23 -27 -824 -3 c-733 -3 -826 -1 -853
13 -42 22 -558 922 -559 975 0 28 52 127 251 480 138 245 266 462 285 483 l35
37 819 0 c783 0 820 -1 850 -19z m-878 -3357 l22 -15 0 -960 c0 -643 -3 -967
-10 -980 -11 -19 -37 -19 -1410 -19 -1373 0 -1399 0 -1410 19 -7 13 -10 337
-10 980 l0 960 22 15 c20 14 169 16 1398 16 1229 0 1378 -2 1398 -16z m-395
-3377 c189 -61 332 -224 394 -451 24 -89 23 -281 -2 -366 -65 -225 -188 -371
-373 -443 l-57 -22 -965 0 -965 0 -57 22 c-185 72 -308 218 -373 443 -25 85
-26 277 -2 366 61 225 204 390 391 450 l71 23 932 1 932 0 74 -23z"/>
<path d="M4366 20284 c-9 -8 -16 -19 -16 -23 0 -19 29 -43 60 -50 26 -5 35
-12 35 -26 0 -26 -40 -32 -65 -10 -12 11 -20 13 -25 5 -13 -20 16 -40 59 -40
47 0 66 13 66 46 0 26 -15 40 -57 48 -30 7 -48 27 -36 40 10 10 42 7 63 -6 24
-15 37 -4 20 17 -16 20 -84 20 -104 -1z"/>
<path d="M4490 20290 c0 -5 11 -10 25 -10 23 0 24 -3 27 -67 2 -42 8 -68 16
-71 9 -3 12 15 12 67 l0 71 31 0 c17 0 28 4 24 10 -3 6 -35 10 -71 10 -36 0
-64 -4 -64 -10z"/>
<path d="M4661 20278 c-5 -13 -18 -47 -30 -76 -25 -63 -25 -62 -7 -62 8 0 18
9 21 20 5 15 15 20 40 20 25 0 35 -5 40 -20 3 -11 13 -20 21 -20 17 0 16 8
-21 97 -25 63 -50 78 -64 41z m32 -66 c-21 -5 -25 2 -17 33 l7 28 12 -29 c10
-24 9 -30 -2 -32z"/>
<path d="M4774 20286 c-10 -26 1 -139 14 -144 8 -2 12 7 12 27 0 26 4 31 24
31 17 0 31 -10 43 -30 9 -16 23 -30 30 -30 17 0 16 11 -3 38 -15 21 -15 25 0
41 22 24 20 58 -3 71 -29 15 -111 13 -117 -4z m95 -15 c25 -16 4 -41 -34 -41
-31 0 -35 3 -35 25 0 21 5 25 28 25 15 0 33 -4 41 -9z"/>
<path d="M4920 20290 c0 -5 11 -10 25 -10 24 0 25 -2 25 -70 0 -56 3 -70 15
-70 12 0 15 14 15 70 0 68 1 70 25 70 14 0 25 5 25 10 0 6 -28 10 -65 10 -37
0 -65 -4 -65 -10z"/>
<path d="M4450 17196 l0 -83 45 -1 c50 -1 65 14 65 65 0 43 -21 67 -53 61 -23
-4 -27 -2 -27 18 0 15 -6 24 -15 24 -12 0 -15 -16 -15 -84z m80 -21 c0 -39
-14 -52 -35 -35 -18 15 -20 51 -4 67 19 19 39 3 39 -32z"/>
<path d="M4580 17194 c0 -64 3 -85 13 -82 8 3 13 32 15 86 2 68 0 82 -13 82
-12 0 -15 -15 -15 -86z"/>
<path d="M3802 17243 c-5 -16 -19 -52 -31 -80 -17 -45 -18 -53 -6 -53 9 0 20
11 25 25 7 19 17 25 40 25 23 0 33 -6 40 -25 5 -14 16 -25 25 -25 12 0 11 8
-6 53 -12 28 -26 64 -31 80 -6 16 -17 27 -28 27 -11 0 -22 -11 -28 -27z m38
-22 c0 -5 3 -16 6 -25 4 -12 0 -16 -16 -16 -16 0 -20 4 -16 16 3 9 6 20 6 25
0 5 5 9 10 9 6 0 10 -4 10 -9z"/>
<path d="M5010 17189 c0 -60 3 -80 13 -77 6 3 13 16 15 31 3 22 9 26 39 29 53
4 56 28 4 28 -37 0 -41 2 -41 25 0 23 4 25 40 25 22 0 40 5 40 10 0 6 -25 10
-55 10 l-55 0 0 -81z"/>
<path d="M3925 17226 c-24 -18 -13 -45 25 -59 17 -6 30 -17 30 -24 0 -16 -15
-17 -42 -2 -25 13 -35 5 -18 -16 15 -18 61 -20 78 -3 23 23 13 48 -24 64 -25
10 -33 19 -26 26 6 6 16 5 30 -3 25 -16 40 -5 22 16 -15 19 -50 19 -75 1z"/>
<path d="M4036 17225 c-21 -22 -10 -43 32 -61 27 -11 33 -17 24 -26 -9 -9 -18
-8 -37 2 -29 16 -43 7 -25 -15 18 -22 77 -20 89 4 13 23 -3 46 -43 61 -23 8
-27 13 -17 23 9 9 16 9 31 -1 25 -15 30 -15 30 2 0 28 -59 35 -84 11z"/>
<path d="M4158 17228 c-31 -24 -27 -94 6 -109 30 -14 76 -4 76 16 0 18 -12 19
-27 4 -15 -15 -43 -4 -43 16 0 11 11 15 40 15 44 0 50 11 24 48 -17 24 -51 29
-76 10z m46 -14 c25 -9 19 -24 -9 -24 -24 0 -32 10 -18 23 8 8 8 8 27 1z"/>
<path d="M4270 17173 c0 -47 3 -63 13 -60 7 2 11 17 9 36 -2 33 12 71 28 71 5
0 10 -23 12 -52 4 -66 28 -79 28 -15 0 27 6 49 15 57 18 15 23 5 27 -54 5 -64
28 -58 28 7 0 32 -5 59 -12 65 -7 5 -43 10 -80 9 l-68 0 0 -64z"/>
<path d="M4636 17218 c-32 -46 -7 -108 43 -108 16 0 34 7 41 15 17 21 6 29
-18 14 -17 -10 -23 -10 -36 0 -26 22 -18 31 28 31 41 0 44 2 39 23 -12 48 -70
63 -97 25z m64 -13 c11 -13 8 -15 -20 -15 -28 0 -31 2 -20 15 7 8 16 15 20 15
4 0 13 -7 20 -15z"/>
<path d="M4830 17225 c-17 -20 -5 -32 15 -15 16 13 45 7 45 -9 0 -5 -14 -11
-31 -13 -39 -4 -59 -30 -43 -55 8 -13 25 -18 62 -19 48 -1 51 0 47 20 -2 11
-6 37 -10 58 -7 48 -57 67 -85 33z m50 -75 c-12 -22 -40 -27 -40 -7 0 19 10
27 32 27 16 0 17 -3 8 -20z"/>
<path d="M5140 17173 c0 -49 3 -63 15 -63 11 0 15 12 15 50 0 38 4 50 15 50 8
0 15 6 15 14 0 10 -10 14 -30 14 l-30 -1 0 -64z"/>
<path d="M5233 17233 c-14 -5 -18 -33 -5 -33 4 0 13 5 19 11 6 6 16 8 22 5 19
-12 12 -26 -12 -26 -29 0 -47 -18 -47 -47 0 -26 -2 -25 68 -28 49 -2 65 6 42
20 -5 3 -10 23 -10 44 0 53 -30 74 -77 54z m47 -78 c0 -16 -27 -32 -37 -22 -3
4 -3 13 0 22 8 20 37 20 37 0z"/>
<path d="M5340 17173 c0 -49 3 -63 15 -63 11 0 15 12 15 49 0 33 5 51 14 54
21 8 26 -2 26 -55 0 -64 24 -61 28 3 6 82 42 75 42 -8 0 -24 4 -43 9 -43 13 0
22 76 12 104 -9 23 -14 24 -85 23 l-76 -1 0 -63z"/>
<path d="M5537 17222 c-22 -25 -21 -75 1 -95 23 -21 65 -22 81 -3 15 18 -4 32
-23 17 -16 -14 -46 -4 -46 15 0 10 12 14 40 14 33 0 40 3 40 19 0 46 -62 67
-93 33z m61 -20 c2 -7 -7 -12 -23 -12 -24 0 -26 2 -15 15 14 17 31 16 38 -3z"/>
<path d="M6600 14030 c0 -91 17 -109 22 -23 l3 58 35 -58 c22 -36 41 -57 53
-57 16 0 18 8 15 75 -4 88 -22 101 -26 18 l-3 -57 -39 62 c-22 34 -44 62 -50
62 -6 0 -10 -32 -10 -80z"/>
<path d="M6793 14100 c-61 -26 -54 -134 10 -151 40 -11 83 7 97 41 13 32 6 83
-14 99 -19 16 -68 22 -93 11z m65 -26 c15 -10 22 -25 22 -48 0 -39 -15 -56
-50 -56 -35 0 -50 17 -50 56 0 29 27 64 50 64 3 0 16 -7 28 -16z"/>
<path d="M4010 13835 c0 -69 3 -85 15 -85 11 0 15 12 15 50 0 43 3 50 19 50
17 0 20 -8 23 -47 4 -69 28 -69 28 0 0 60 -16 83 -50 74 -16 -4 -20 0 -20 19
0 15 -6 24 -15 24 -12 0 -15 -16 -15 -85z"/>
<path d="M4484 13907 c-3 -8 -4 -45 -2 -82 4 -82 25 -102 30 -28 3 41 6 48 26
51 20 3 22 0 22 -48 0 -66 24 -64 28 2 4 55 -17 83 -54 74 -21 -6 -24 -3 -24
19 0 26 -17 34 -26 12z"/>
<path d="M5110 13835 c0 -65 3 -86 13 -82 8 2 12 28 12 82 0 54 -4 80 -12 83
-10 3 -13 -18 -13 -83z"/>
<path d="M5360 13896 c0 -23 -3 -26 -24 -20 -33 8 -56 -19 -56 -65 0 -48 17
-62 66 -59 l39 3 0 79 c0 55 -4 81 -12 84 -8 2 -13 -6 -13 -22z m-5 -66 c9
-30 -4 -60 -26 -60 -16 0 -19 7 -19 40 0 33 3 40 19 40 11 0 23 -9 26 -20z"/>
<path d="M5410 13835 c0 -65 3 -86 13 -82 8 2 12 28 12 82 0 54 -4 80 -12 83
-10 3 -13 -18 -13 -83z"/>
<path d="M3714 13896 c-10 -26 1 -139 14 -144 9 -3 12 17 12 77 0 49 -4 81
-10 81 -6 0 -13 -6 -16 -14z"/>
<path d="M4341 13891 c-14 -14 -21 -34 -21 -61 0 -56 28 -82 82 -78 25 2 45
10 52 20 15 25 -1 34 -24 13 -26 -24 -68 -13 -76 20 -16 63 34 108 76 70 23
-21 39 -12 24 13 -17 26 -88 28 -113 3z"/>
<path d="M5224 13897 c-3 -8 -4 -43 -2 -78 2 -49 7 -64 18 -64 12 0 15 15 15
74 0 51 -4 76 -12 78 -7 3 -15 -2 -19 -10z"/>
<path d="M5592 13898 c-13 -13 -17 -38 -5 -38 3 0 14 7 24 16 10 9 25 14 34
11 21 -9 19 -40 -5 -55 -19 -12 -28 -42 -12 -42 4 0 20 14 36 30 26 26 28 34
20 58 -7 21 -17 28 -44 30 -19 2 -41 -3 -48 -10z"/>
<path d="M3943 13881 c-6 -10 -8 -22 -3 -27 5 -5 10 -29 12 -54 3 -38 7 -46
26 -48 12 -2 22 1 22 7 0 6 -4 11 -10 11 -14 0 -13 77 1 82 8 3 8 10 -2 26
-17 27 -30 28 -46 3z"/>
<path d="M3788 13869 c-30 -17 -22 -48 17 -65 19 -8 35 -19 35 -24 0 -14 -34
-12 -48 2 -8 8 -15 9 -22 2 -15 -15 13 -36 46 -36 32 0 59 25 50 47 -3 9 -20
22 -36 28 -39 15 -39 31 0 24 22 -5 30 -3 30 7 0 24 -42 33 -72 15z"/>
<path d="M4152 13864 c-14 -10 -22 -25 -22 -45 0 -48 16 -69 54 -69 37 0 66
23 45 35 -6 4 -15 2 -19 -5 -9 -14 -42 -10 -47 7 -3 7 10 13 34 15 30 2 39 7
41 25 2 13 -5 27 -20 37 -28 20 -38 20 -66 0z m58 -24 c0 -5 -11 -10 -25 -10
-14 0 -25 5 -25 10 0 6 11 10 25 10 14 0 25 -4 25 -10z"/>
<path d="M4628 13869 c-30 -17 -21 -30 17 -23 23 4 35 2 35 -5 0 -6 -11 -11
-24 -11 -27 0 -56 -23 -56 -44 0 -24 24 -34 73 -34 37 1 47 4 42 15 -3 8 -5
30 -5 48 0 54 -39 79 -82 54z m52 -63 c0 -18 -15 -36 -31 -36 -21 0 -26 25 -6
33 16 7 37 8 37 3z"/>
<path d="M4734 13871 c-2 -2 -4 -31 -4 -63 0 -44 4 -58 14 -58 11 0 16 14 18
48 3 40 6 47 26 50 20 3 22 0 22 -48 0 -37 4 -50 13 -48 15 5 21 87 8 108 -9
13 -85 22 -97 11z"/>
<path d="M4860 13813 c0 -49 3 -63 15 -63 11 0 15 12 15 50 0 43 3 50 19 50
17 0 20 -8 23 -47 4 -69 28 -69 28 0 0 63 -10 76 -62 74 l-38 -1 0 -63z"/>
<path d="M5002 13864 c-14 -10 -22 -25 -22 -45 0 -48 16 -69 54 -69 38 0 67
24 41 34 -8 3 -15 1 -15 -5 0 -14 -42 -7 -47 8 -3 7 10 13 34 15 45 4 55 26
24 57 -25 25 -39 26 -69 5z m58 -24 c0 -5 -11 -10 -25 -10 -14 0 -25 5 -25 10
0 6 11 10 25 10 14 0 25 -4 25 -10z"/>
<path d="M5470 13860 c-24 -24 -26 -57 -4 -88 17 -25 65 -30 83 -9 15 19 3 28
-19 15 -19 -12 -50 -5 -50 12 0 5 18 10 40 10 35 0 40 3 40 23 0 27 -28 57
-53 57 -9 0 -26 -9 -37 -20z m60 -20 c0 -5 -12 -10 -26 -10 -14 0 -23 4 -19
10 3 6 15 10 26 10 10 0 19 -4 19 -10z"/>
<path d="M5617 13774 c-8 -8 1 -24 14 -24 5 0 9 7 9 15 0 15 -12 20 -23 9z"/>
<path d="M7728 14035 c-11 -11 39 -160 53 -160 8 0 21 21 29 47 20 63 27 67
35 20 8 -48 30 -82 42 -67 8 8 22 51 49 148 4 11 0 17 -10 17 -8 0 -17 -8 -20
-17 -3 -10 -10 -38 -17 -63 l-12 -45 -17 60 c-22 78 -40 78 -61 1 l-15 -60
-18 62 c-16 58 -24 70 -38 57z"/>
<path d="M8070 14030 c0 -5 5 -10 10 -10 6 0 10 5 10 10 0 6 -4 10 -10 10 -5
0 -10 -4 -10 -10z"/>
<path d="M8243 14018 c-11 -28 -2 -143 12 -143 6 0 11 22 13 50 2 27 9 53 15
57 9 6 8 11 -3 19 -11 8 -12 12 -2 16 18 7 14 23 -6 23 -11 0 -23 -10 -29 -22z"/>
<path d="M8570 13954 c0 -64 3 -85 13 -82 6 3 13 19 15 36 4 44 34 42 61 -3
19 -34 41 -46 41 -25 0 6 -7 22 -16 35 -15 22 -15 26 0 40 39 40 1 85 -71 85
l-43 0 0 -86z m100 37 c0 -11 -9 -21 -22 -25 -38 -10 -45 -7 -50 19 -5 23 -2
25 33 25 32 0 39 -4 39 -19z"/>
<path d="M9050 14016 c0 -19 -4 -22 -25 -18 -35 6 -55 -14 -55 -58 0 -47 23
-69 70 -65 l35 2 3 82 c2 68 0 81 -13 81 -9 0 -15 -9 -15 -24z m-5 -76 c0 -29
-4 -36 -22 -38 -20 -3 -23 1 -23 31 0 38 7 49 30 45 10 -2 15 -15 15 -38z"/>
<path d="M9480 13955 l0 -85 29 0 c72 0 114 38 86 77 -9 12 -10 23 -4 35 15
28 -22 58 -71 58 l-40 0 0 -85z m83 48 c10 -10 -13 -33 -33 -33 -10 0 -20 9
-23 20 -4 16 0 20 22 20 15 0 31 -3 34 -7z m5 -80 c3 -20 -1 -23 -27 -23 -27
0 -31 4 -31 26 0 22 4 25 28 22 19 -2 28 -9 30 -25z"/>
<path d="M9862 13958 c2 -49 7 -82 13 -81 6 1 11 11 13 23 4 27 12 25 38 -7
12 -16 25 -25 29 -21 8 8 3 23 -20 54 -14 19 -14 23 6 47 25 33 6 37 -28 5
l-23 -21 0 41 c0 31 -4 42 -15 42 -13 0 -15 -14 -13 -82z"/>
<path d="M10170 14021 c0 -11 -6 -22 -12 -25 -10 -5 -10 -7 0 -12 7 -3 12 -26
12 -60 0 -30 5 -54 10 -54 6 0 10 25 10 55 0 41 4 55 14 55 11 0 16 -14 18
-50 4 -66 22 -69 26 -5 2 27 9 53 15 57 9 6 8 11 -3 19 -11 8 -12 12 -2 16 19
8 14 23 -8 23 -13 0 -20 -7 -20 -20 0 -13 -7 -20 -20 -20 -25 0 -25 9 -2 26
15 12 14 13 -10 14 -21 0 -28 -5 -28 -19z"/>
<path d="M8120 14016 c0 -8 -4 -16 -9 -18 -11 -4 2 -105 17 -120 6 -6 19 -7
29 -4 17 7 17 8 1 20 -21 15 -25 81 -5 90 10 5 10 7 0 12 -7 3 -13 12 -13 20
0 8 -4 14 -10 14 -5 0 -10 -6 -10 -14z"/>
<path d="M7946 13984 c-9 -22 -8 -24 9 -24 8 0 15 5 15 10 0 6 9 10 20 10 30
0 24 -18 -9 -25 -37 -8 -54 -28 -46 -54 8 -25 38 -35 64 -22 12 7 22 7 26 2 3
-5 18 -8 33 -7 26 3 27 6 30 66 2 47 0 61 -10 58 -8 -3 -14 -25 -16 -57 -3
-58 -22 -61 -22 -2 0 20 -5 42 -12 49 -18 18 -75 15 -82 -4z m62 -66 c-5 -15
-48 -24 -48 -10 0 14 12 22 33 22 10 0 17 -5 15 -12z"/>
<path d="M8309 13984 c-7 -9 -12 -32 -12 -52 2 -59 53 -82 94 -41 17 17 20 29
15 57 -3 19 -11 39 -18 44 -22 13 -65 9 -79 -8z m66 -44 c0 -28 -4 -36 -22
-38 -14 -2 -23 3 -28 17 -10 34 4 63 28 59 18 -2 22 -10 22 -38z"/>
<path d="M8423 13985 c-2 -7 -3 -34 -1 -60 4 -61 28 -75 28 -16 0 28 7 48 20
61 11 11 20 22 20 24 0 11 -62 2 -67 -9z"/>
<path d="M8733 13985 c-8 -22 4 -30 22 -15 8 7 22 9 32 5 14 -6 10 -10 -22
-20 -34 -10 -40 -16 -40 -40 0 -35 27 -55 53 -38 12 7 24 8 33 2 25 -16 29
-10 23 34 -12 76 -20 87 -59 87 -23 0 -38 -6 -42 -15z m57 -70 c0 -8 -9 -15
-20 -15 -11 0 -20 7 -20 15 0 8 9 15 20 15 11 0 20 -7 20 -15z"/>
<path d="M8852 13936 c4 -72 21 -78 28 -9 4 34 10 49 22 51 14 3 17 -6 20 -49
2 -32 8 -54 16 -57 10 -3 12 11 10 59 l-3 64 -48 1 -48 2 3 -62z"/>
<path d="M9104 13975 c-32 -50 7 -114 62 -101 31 8 47 41 40 81 -10 51 -73 64
-102 20z m71 -35 c0 -28 -4 -36 -22 -38 -24 -4 -38 25 -28 59 5 14 14 19 28
17 18 -2 22 -10 22 -38z"/>
<path d="M9223 13985 c-2 -7 -3 -34 -1 -60 4 -61 28 -75 28 -17 0 50 8 72 26
72 9 0 14 -16 16 -50 4 -64 21 -65 28 -3 4 34 10 49 22 51 14 3 17 -6 20 -50
2 -29 8 -53 13 -53 12 0 19 68 11 101 -6 22 -11 23 -82 22 -49 -1 -77 -5 -81
-13z"/>
<path d="M9634 13985 c-8 -21 3 -32 18 -17 14 14 38 16 38 2 0 -5 -15 -13 -32
-18 -25 -6 -34 -14 -36 -33 -4 -35 21 -55 52 -41 13 6 29 6 36 2 18 -11 33 -2
23 13 -4 7 -10 32 -13 57 -5 44 -6 45 -43 48 -27 2 -39 -1 -43 -13z m56 -70
c0 -8 -9 -15 -20 -15 -11 0 -20 7 -20 15 0 8 9 15 20 15 11 0 20 -7 20 -15z"/>
<path d="M9754 13975 c-38 -57 27 -134 76 -90 24 21 26 35 5 35 -8 0 -15 -5
-15 -11 0 -6 -10 -9 -22 -7 -25 3 -35 42 -18 68 8 12 13 13 30 3 30 -20 43
-17 30 7 -16 30 -65 27 -86 -5z"/>
<path d="M10046 13984 c-35 -34 -5 -114 42 -114 43 0 72 86 40 118 -17 17 -64
15 -82 -4z m64 -45 c0 -36 -2 -40 -22 -37 -40 5 -37 78 2 78 17 0 20 -6 20
-41z"/>
<path d="M8830 13770 c-72 -5 -99 -21 -45 -28 24 -3 25 -6 25 -73 0 -52 3 -70
13 -67 7 3 13 29 15 70 l3 66 39 6 c22 3 40 10 40 16 0 14 -10 15 -90 10z"/>
<path d="M8892 13668 c2 -35 8 -63 13 -63 6 0 11 28 13 63 2 51 0 62 -13 62
-13 0 -15 -11 -13 -62z"/>
<path d="M8942 13667 c4 -73 21 -79 28 -10 4 34 10 49 22 51 14 3 17 -6 20
-50 4 -65 21 -66 28 -1 4 34 10 49 22 51 14 3 17 -6 20 -50 4 -64 22 -66 26
-2 4 64 -6 72 -94 73 l-75 1 3 -63z"/>
<path d="M9134 13705 c-36 -54 14 -123 71 -97 37 17 31 34 -9 27 -25 -5 -35
-3 -39 9 -5 13 1 16 33 16 47 0 57 13 36 45 -22 34 -70 34 -92 0z m74 -12 c2
-9 -7 -13 -27 -13 -23 0 -29 4 -24 16 6 17 44 15 51 -3z"/>
<path d="M6212 10211 c2 -7 7 -12 11 -12 12 1 9 15 -3 20 -7 2 -11 -2 -8 -8z"/>
<path d="M6710 10207 c-50 -25 -32 -73 33 -86 41 -9 49 -38 12 -47 -18 -4 -32
-1 -45 11 -26 23 -47 9 -24 -16 19 -21 73 -25 105 -9 21 12 26 52 7 68 -7 6
-29 14 -48 19 -37 10 -47 35 -16 41 10 2 29 -2 42 -9 28 -15 39 -9 21 13 -17
22 -58 29 -87 15z"/>
<path d="M5450 10200 c0 -5 11 -10 25 -10 24 0 25 -2 25 -70 0 -56 3 -70 15
-70 12 0 15 14 15 70 0 68 1 70 25 70 14 0 25 5 25 10 0 6 -28 10 -65 10 -37
0 -65 -4 -65 -10z"/>
<path d="M6390 10129 c0 -60 3 -80 13 -77 6 3 13 17 15 31 5 38 38 36 60 -3 9
-16 25 -30 35 -30 18 0 17 2 -2 34 -19 29 -19 35 -6 46 18 15 20 51 3 68 -7 7
-36 12 -65 12 l-53 0 0 -81z m95 36 c0 -15 -8 -21 -32 -23 -30 -3 -33 -1 -33
23 0 24 3 26 33 23 24 -2 32 -8 32 -23z"/>
<path d="M6530 10200 c0 -5 11 -10 25 -10 23 0 24 -3 27 -67 2 -42 8 -68 16
-71 9 -3 12 15 12 67 l0 71 30 0 c17 0 30 5 30 10 0 6 -30 10 -70 10 -40 0
-70 -4 -70 -10z"/>
<path d="M6262 10188 c-6 -8 -7 -37 -4 -73 6 -52 10 -60 30 -63 12 -2 22 1 22
7 0 6 -4 11 -10 11 -13 0 -13 77 0 85 6 4 5 13 -3 25 -14 23 -21 25 -35 8z"/>
<path d="M5583 10165 c-2 -7 -3 -34 -1 -60 4 -57 28 -76 28 -22 0 45 9 67 26
67 8 0 14 6 14 14 0 18 -60 19 -67 1z"/>
<path d="M5678 10169 c-30 -17 -21 -30 17 -23 23 4 35 2 35 -5 0 -6 -11 -11
-24 -11 -27 0 -56 -23 -56 -44 0 -25 25 -34 93 -33 l67 0 0 33 c0 45 9 64 31
64 16 0 19 -8 19 -50 0 -38 4 -50 15 -50 11 0 15 12 15 46 0 69 -12 85 -63 80
l-42 -4 -3 -51 c-4 -63 -22 -68 -22 -6 0 34 -5 47 -19 55 -24 12 -41 12 -63
-1z m52 -68 c0 -5 -7 -14 -15 -21 -18 -15 -42 1 -31 19 8 13 46 15 46 2z"/>
<path d="M5923 10173 c-7 -2 -13 -16 -13 -29 0 -19 8 -29 36 -40 27 -11 34
-18 26 -26 -9 -9 -18 -8 -37 2 -29 16 -43 7 -25 -15 20 -24 77 -19 91 7 10 18
8 24 -11 40 -12 10 -28 18 -36 18 -7 0 -16 5 -20 12 -5 8 3 9 29 5 38 -6 46 0
25 21 -12 12 -43 15 -65 5z"/>
<path d="M6024 10171 c-2 -2 -4 -31 -4 -63 0 -44 4 -58 14 -58 11 0 16 14 18
47 2 36 7 49 21 51 14 3 17 -4 17 -47 0 -39 4 -51 15 -51 11 0 15 12 15 50 0
43 3 50 20 50 17 0 20 -7 20 -50 0 -38 4 -50 15 -50 18 0 21 80 5 111 -11 20
-45 26 -55 9 -5 -8 -11 -8 -19 -1 -12 10 -72 11 -82 2z"/>
<path d="M6217 10174 c-4 -4 -7 -34 -7 -66 0 -78 24 -76 28 2 3 50 -6 78 -21
64z"/>
<path d="M5379 7161 c-27 -28 -31 -37 -26 -69 7 -43 38 -72 77 -72 36 0 80 34
64 50 -8 8 -14 7 -24 -5 -20 -24 -69 -19 -81 9 -26 57 22 105 77 76 13 -8 27
-10 31 -6 11 11 -20 35 -54 42 -27 5 -37 1 -64 -25z"/>
<path d="M5510 7175 c0 -9 9 -15 25 -15 24 0 25 -2 25 -70 0 -56 3 -70 15 -70
12 0 15 14 15 70 0 68 1 70 25 70 16 0 25 6 25 15 0 12 -14 15 -65 15 -51 0
-65 -3 -65 -15z"/>
<path d="M5683 7180 c-15 -6 -23 -18 -23 -33 0 -30 14 -42 59 -54 41 -11 50
-28 21 -43 -16 -9 -27 -7 -50 7 -37 21 -53 8 -21 -18 30 -24 72 -24 102 0 20
16 22 22 12 44 -8 17 -24 28 -50 34 -49 11 -59 43 -14 43 17 0 31 -4 31 -10 0
-5 7 -10 15 -10 25 0 17 30 -11 40 -30 12 -42 12 -71 0z"/>
<path d="M5877 7183 c-4 -3 -7 -42 -7 -85 0 -63 3 -78 15 -78 10 0 15 11 15
35 0 28 4 35 19 35 11 0 28 -15 41 -35 12 -19 28 -35 36 -35 19 0 17 10 -5 39
-18 24 -18 25 1 51 23 31 16 58 -19 71 -28 10 -87 12 -96 2z m98 -33 c11 -18
-15 -40 -46 -40 -24 0 -29 4 -29 25 0 22 4 25 34 25 19 0 38 -5 41 -10z"/>
<path d="M6390 7180 c0 -5 7 -10 15 -10 8 0 15 5 15 10 0 6 -7 10 -15 10 -8 0
-15 -4 -15 -10z"/>
<path d="M6750 7170 c0 -15 -7 -20 -24 -20 -47 0 -71 -64 -41 -107 12 -17 25
-22 55 -20 l40 1 0 83 c0 67 -3 83 -15 83 -8 0 -15 -9 -15 -20z m-2 -80 c4
-36 -14 -56 -35 -38 -16 13 -17 50 -1 66 19 19 33 9 36 -28z"/>
<path d="M6822 7174 c-22 -15 -30 -44 -13 -44 5 0 14 7 21 15 7 8 21 15 31 15
25 0 25 -32 -1 -55 -19 -17 -27 -45 -14 -45 14 0 64 61 64 79 0 19 -34 51 -55
51 -6 0 -21 -7 -33 -16z"/>
<path d="M6039 7134 c-20 -24 -16 -84 6 -100 25 -18 59 -18 75 1 18 21 6 29
-21 15 -19 -11 -25 -10 -36 6 -13 18 -11 19 31 22 50 3 56 14 30 50 -18 26
-65 30 -85 6z m61 -19 c11 -13 8 -15 -20 -15 -28 0 -31 2 -20 15 7 8 16 15 20
15 4 0 13 -7 20 -15z"/>
<path d="M6167 7132 c-23 -25 -21 -75 2 -96 23 -21 60 -18 75 6 14 24 0 35
-21 16 -26 -22 -43 -11 -43 27 0 40 12 50 39 33 25 -15 39 -4 21 17 -17 20
-53 19 -73 -3z"/>
<path d="M6276 7128 c-32 -46 -7 -108 43 -108 29 0 60 25 47 37 -4 4 -16 2
-27 -5 -16 -10 -24 -10 -35 -1 -24 20 -15 29 30 29 41 0 44 2 39 23 -9 34 -23
47 -54 47 -17 0 -34 -8 -43 -22z m64 -13 c11 -13 8 -15 -20 -15 -28 0 -31 2
-20 15 7 8 16 15 20 15 4 0 13 -7 20 -15z"/>
<path d="M6390 7085 c0 -51 3 -65 15 -65 12 0 15 14 15 65 0 51 -3 65 -15 65
-12 0 -15 -14 -15 -65z"/>
<path d="M6430 7141 c0 -5 10 -35 22 -66 14 -36 26 -55 36 -53 13 3 52 88 52
116 0 28 -24 4 -39 -39 l-15 -44 -15 48 c-8 26 -20 47 -28 47 -7 0 -13 -4 -13
-9z"/>
<path d="M6566 7134 c-36 -36 -9 -114 40 -114 28 0 61 25 45 34 -6 4 -18 3
-25 -3 -16 -14 -46 -4 -46 15 0 10 12 14 40 14 33 0 40 3 40 19 0 27 -26 51
-55 51 -13 0 -31 -7 -39 -16z m62 -21 c2 -8 -6 -13 -22 -13 -25 0 -33 10 -19
24 10 10 36 3 41 -11z"/>
<path d="M6840 7034 c0 -9 5 -14 12 -12 18 6 21 28 4 28 -9 0 -16 -7 -16 -16z"/>
<path d="M4182 3819 c2 -6 8 -10 13 -10 5 0 11 4 13 10 2 6 -4 11 -13 11 -9 0
-15 -5 -13 -11z"/>
<path d="M4754 3817 c-10 -27 1 -150 14 -155 9 -3 12 18 12 82 0 52 -4 86 -10
86 -6 0 -13 -6 -16 -13z"/>
<path d="M4802 3819 c2 -6 8 -10 13 -10 5 0 11 4 13 10 2 6 -4 11 -13 11 -9 0
-15 -5 -13 -11z"/>
<path d="M5152 3819 c2 -6 8 -10 13 -10 5 0 11 4 13 10 2 6 -4 11 -13 11 -9 0
-15 -5 -13 -11z"/>
<path d="M3420 3810 c0 -5 11 -10 25 -10 24 0 25 -2 25 -70 0 -56 3 -70 15
-70 12 0 15 14 15 70 0 68 1 70 25 70 14 0 25 5 25 10 0 6 -28 10 -65 10 -37
0 -65 -4 -65 -10z"/>
<path d="M4375 3753 c-15 -38 -29 -74 -32 -80 -3 -7 2 -13 10 -13 9 0 19 9 22
20 9 29 67 28 88 -2 29 -44 30 -8 1 67 -37 97 -53 98 -89 8z m65 -15 c0 -4 -9
-8 -21 -8 -15 0 -19 4 -15 16 3 9 6 21 6 27 1 13 30 -22 30 -35z"/>
<path d="M5520 3740 l0 -80 45 0 c35 0 52 6 70 25 56 55 15 135 -70 135 l-45
0 0 -80z m88 44 c14 -9 22 -26 22 -43 0 -32 -13 -45 -52 -55 l-28 -6 0 60 c0
66 13 76 58 44z"/>
<path d="M4232 3798 c-6 -8 -7 -37 -4 -73 6 -52 10 -60 30 -63 12 -2 22 1 22
7 0 6 -4 11 -10 11 -13 0 -13 77 0 85 6 4 5 13 -3 25 -14 23 -21 25 -35 8z"/>
<path d="M5094 3796 c-8 -8 -9 -33 -5 -72 5 -51 9 -59 29 -62 12 -2 22 1 22 7
0 6 -4 11 -10 11 -13 0 -13 77 0 85 6 4 5 13 -3 25 -14 23 -18 24 -33 6z"/>
<path d="M5805 3793 c-8 -19 -7 -86 1 -114 4 -14 19 -17 88 -16 l84 0 -5 41
c-10 80 -57 111 -99 65 l-19 -21 36 7 c23 4 39 3 43 -4 4 -7 -1 -11 -14 -11
-33 0 -60 -18 -60 -40 0 -11 -7 -20 -15 -20 -11 0 -15 11 -15 40 0 22 5 40 10
40 15 0 12 19 -4 36 -19 18 -22 18 -31 -3z m125 -93 c-12 -22 -40 -27 -40 -7
0 19 10 27 32 27 16 0 17 -3 8 -20z"/>
<path d="M3560 3723 c0 -47 3 -64 13 -61 6 3 13 25 15 51 2 33 7 47 18 47 7 0
14 6 14 14 0 10 -10 14 -30 14 l-30 -1 0 -64z"/>
<path d="M3648 3779 c-30 -17 -21 -30 17 -23 23 4 35 2 35 -5 0 -6 -11 -11
-24 -11 -32 0 -59 -36 -45 -61 8 -15 21 -18 82 -16 70 2 72 3 69 27 -5 42 7
70 28 70 17 0 20 -7 20 -50 0 -38 4 -50 15 -50 11 0 15 13 15 54 0 63 -11 76
-65 73 l-40 -3 -3 -52 c-4 -62 -22 -70 -22 -9 0 24 -5 48 -12 55 -15 15 -47
15 -70 1z m52 -73 c0 -19 -17 -29 -37 -22 -12 5 -13 9 -3 21 16 19 40 19 40 1z"/>
<path d="M3892 3778 c-23 -23 -13 -48 24 -64 28 -12 34 -18 25 -27 -9 -9 -16
-8 -32 1 -25 16 -45 6 -28 -14 15 -18 73 -18 89 1 18 22 5 44 -35 61 -45 18
-45 28 0 21 25 -4 35 -2 35 8 0 24 -57 34 -78 13z"/>
<path d="M3994 3781 c-2 -2 -4 -31 -4 -63 0 -44 4 -58 14 -58 11 0 16 14 18
47 2 36 7 49 21 51 14 3 17 -4 17 -47 0 -38 4 -51 14 -51 11 0 16 14 18 47 2
36 7 49 21 51 14 3 17 -4 17 -47 0 -39 4 -51 15 -51 13 0 15 11 13 56 -3 65
-23 88 -58 67 -12 -8 -21 -9 -25 -3 -6 9 -72 10 -81 1z"/>
<path d="M4186 3783 c-3 -3 -6 -33 -6 -65 0 -45 3 -58 15 -58 12 0 15 13 15
59 0 56 -9 79 -24 64z"/>
<path d="M4503 3774 c-9 -25 2 -158 15 -162 8 -2 12 7 12 26 0 26 3 29 25 24
14 -2 32 1 40 8 20 16 19 84 -1 104 -17 18 -84 18 -91 0z m75 -51 c-4 -46 -34
-59 -44 -19 -8 35 1 56 26 56 18 0 21 -5 18 -37z"/>
<path d="M4630 3697 c0 -66 3 -88 13 -85 6 3 13 14 15 26 2 16 10 22 27 22 46
0 70 64 40 107 -12 17 -25 22 -55 20 l-40 -1 0 -89z m78 33 c3 -33 -12 -55
-32 -47 -11 4 -16 19 -16 42 0 32 3 36 23 33 15 -2 23 -11 25 -28z"/>
<path d="M4806 3783 c-3 -3 -6 -33 -6 -65 0 -45 3 -58 15 -58 12 0 15 13 15
59 0 56 -9 79 -24 64z"/>
<path d="M4867 3772 c-19 -21 -22 -64 -7 -93 13 -23 62 -26 80 -4 19 22 2 40
-20 20 -25 -23 -40 -11 -40 31 0 27 4 34 19 34 11 0 23 -5 27 -11 4 -8 10 -7
18 1 8 8 6 15 -8 26 -27 19 -50 18 -69 -4z"/>
<path d="M4982 3778 c-20 -20 -14 -28 17 -22 16 4 32 1 35 -5 5 -7 -2 -11 -16
-11 -39 0 -62 -23 -54 -53 6 -25 10 -26 60 -25 l54 1 -5 41 c-3 23 -12 51 -19
64 -16 24 -53 29 -72 10z m56 -70 c-6 -16 -36 -34 -44 -26 -3 4 -4 14 -1 23 7
17 51 21 45 3z"/>
<path d="M5156 3783 c-3 -3 -6 -33 -6 -65 0 -45 3 -58 15 -58 12 0 15 13 15
59 0 56 -9 79 -24 64z"/>
<path d="M5216 3774 c-19 -18 -21 -85 -4 -102 17 -17 64 -15 82 4 22 21 20 77
-2 97 -23 21 -56 22 -76 1z m62 -51 c-2 -30 -7 -38 -23 -38 -16 0 -21 8 -23
38 -3 34 -1 37 23 37 24 0 26 -3 23 -37z"/>
<path d="M5330 3724 c0 -48 3 -65 13 -62 6 3 13 25 15 51 3 39 6 47 23 47 16
0 19 -7 19 -50 0 -38 4 -50 15 -50 13 0 15 11 13 56 -3 66 -23 88 -58 66 -12
-7 -20 -8 -20 -2 0 5 -4 10 -10 10 -6 0 -10 -29 -10 -66z"/>
<path d="M5692 3778 c-21 -21 -13 -29 23 -22 23 4 35 2 35 -5 0 -6 -9 -11 -21
-11 -31 0 -59 -18 -59 -39 0 -29 21 -39 73 -39 37 1 47 4 42 15 -3 8 -5 30 -5
48 0 19 -7 41 -16 49 -18 19 -55 21 -72 4z m56 -70 c-6 -16 -36 -34 -44 -26
-3 4 -4 14 -1 23 7 17 51 21 45 3z"/>
<path d="M4474 787 c-3 -8 -4 -45 -2 -83 l3 -69 63 0 c76 0 88 19 15 23 -49 3
-53 5 -53 28 0 22 4 24 45 24 25 0 45 5 45 10 0 6 -20 10 -45 10 -38 0 -45 3
-45 20 0 17 7 20 50 20 38 0 50 4 50 15 0 20 -118 22 -126 2z"/>
<path d="M4624 787 c-9 -24 0 -152 11 -150 6 2 11 28 13 60 l3 57 40 -63 c22
-34 45 -61 52 -58 8 2 13 32 15 85 2 67 0 82 -12 82 -11 0 -16 -15 -18 -57
l-3 -58 -35 58 c-34 56 -56 70 -66 44z"/>
<path d="M4790 714 l0 -87 47 6 c134 15 117 167 -18 167 l-29 0 0 -86z m94 40
c33 -33 7 -94 -41 -94 -21 0 -23 4 -23 55 0 52 2 55 24 55 14 0 32 -7 40 -16z"/>
<path d="M4803 11915 c-13 -9 -23 -22 -23 -29 0 -20 31 -43 68 -51 22 -4 32
-12 32 -25 0 -26 -36 -35 -65 -16 -30 20 -35 20 -35 1 0 -20 46 -37 81 -30 66
15 61 76 -8 92 -43 10 -56 37 -23 48 14 4 28 1 40 -10 13 -12 20 -13 25 -5 18
30 -58 50 -92 25z"/>
<path d="M4500 11876 c17 -26 30 -57 30 -75 0 -17 5 -31 10 -31 6 0 10 12 10
28 0 15 6 36 13 47 47 69 50 75 33 75 -8 0 -22 -13 -31 -30 -9 -16 -19 -30
-23 -30 -4 0 -16 14 -25 30 -10 17 -25 30 -33 30 -11 0 -7 -12 16 -44z"/>
<path d="M4630 11845 l0 -75 66 0 c41 0 63 4 59 10 -3 6 -26 10 -51 10 -40 0
-44 2 -44 25 0 23 4 25 45 25 25 0 45 5 45 10 0 6 -20 10 -45 10 -38 0 -45 3
-45 20 0 17 7 20 45 20 25 0 45 5 45 10 0 6 -27 10 -60 10 l-60 0 0 -75z"/>
<path d="M3950 11471 c-8 -17 -7 -24 10 -41 28 -28 63 -11 58 28 -4 35 -51 44
-68 13z"/>
<path d="M4250 11475 c-23 -28 9 -72 45 -59 36 14 24 74 -15 74 -10 0 -23 -7
-30 -15z"/>
<path d="M4547 11484 c-14 -14 -7 -53 12 -63 26 -14 54 8 49 40 -2 17 -10 25
-28 27 -14 2 -29 0 -33 -4z"/>
<path d="M4842 11478 c-17 -17 -15 -32 7 -52 15 -14 24 -15 40 -6 22 11 26 26
15 54 -7 19 -45 21 -62 4z"/>
<path d="M5137 11483 c-14 -13 -6 -53 12 -63 15 -7 24 -5 41 8 19 16 21 22 11
40 -11 21 -50 30 -64 15z"/>
<path d="M5430 11471 c-8 -17 -7 -24 10 -41 28 -28 63 -11 58 28 -4 35 -51 44
-68 13z"/>
<path d="M5730 11475 c-23 -28 9 -72 45 -59 36 14 24 74 -15 74 -10 0 -23 -7
-30 -15z"/>
<path d="M6027 11484 c-14 -14 -7 -53 12 -63 26 -14 54 8 49 40 -2 17 -10 25
-28 27 -14 2 -29 0 -33 -4z"/>
<path d="M6322 11478 c-17 -17 -15 -32 7 -52 15 -14 24 -15 40 -6 22 11 26 26
15 54 -7 19 -45 21 -62 4z"/>
<path d="M6617 11483 c-14 -13 -6 -53 12 -63 15 -7 24 -5 41 8 19 16 21 22 11
40 -11 21 -50 30 -64 15z"/>
<path d="M6910 11471 c-8 -17 -7 -24 10 -41 28 -28 63 -11 58 28 -4 35 -51 44
-68 13z"/>
<path d="M7210 11475 c-23 -28 9 -72 45 -59 36 14 24 74 -15 74 -10 0 -23 -7
-30 -15z"/>
<path d="M7507 11484 c-14 -14 -7 -53 12 -63 26 -14 54 8 49 40 -2 17 -10 25
-28 27 -14 2 -29 0 -33 -4z"/>
<path d="M7802 11478 c-17 -17 -15 -32 7 -52 15 -14 24 -15 40 -6 22 11 26 26
15 54 -7 19 -45 21 -62 4z"/>
<path d="M8097 11483 c-14 -13 -6 -53 12 -63 15 -7 24 -5 41 8 19 16 21 22 11
40 -11 21 -50 30 -64 15z"/>
<path d="M8390 11471 c-8 -17 -7 -24 10 -41 28 -28 63 -11 58 28 -4 35 -51 44
-68 13z"/>
<path d="M8690 11475 c-23 -28 9 -72 45 -59 36 14 24 74 -15 74 -10 0 -23 -7
-30 -15z"/>
<path d="M9282 11478 c-17 -17 -15 -32 7 -52 15 -14 24 -15 40 -6 22 11 26 26
15 54 -7 19 -45 21 -62 4z"/>
<path d="M9577 11483 c-14 -13 -6 -53 12 -63 15 -7 24 -5 41 8 19 16 21 22 11
40 -11 21 -50 30 -64 15z"/>
<path d="M9870 11471 c-8 -17 -7 -24 10 -41 28 -28 63 -11 58 28 -4 35 -51 44
-68 13z"/>
<path d="M10170 11475 c-23 -28 9 -72 45 -59 36 14 24 74 -15 74 -10 0 -23 -7
-30 -15z"/>
<path d="M10467 11484 c-14 -14 -7 -53 12 -63 26 -14 54 8 49 40 -2 17 -10 25
-28 27 -14 2 -29 0 -33 -4z"/>
<path d="M10762 11478 c-17 -17 -15 -32 7 -52 15 -14 24 -15 40 -6 22 11 26
26 15 54 -7 19 -45 21 -62 4z"/>
<path d="M11057 11483 c-14 -13 -6 -53 12 -63 15 -7 24 -5 41 8 19 16 21 22
11 40 -11 21 -50 30 -64 15z"/>
<path d="M3597 11424 c-13 -13 -7 -51 9 -65 23 -19 49 1 49 37 0 24 -5 30 -25
32 -14 2 -29 0 -33 -4z"/>
<path d="M3597 11124 c-13 -13 -7 -51 9 -65 23 -19 49 1 49 37 0 24 -5 30 -25
32 -14 2 -29 0 -33 -4z"/>
<path d="M11122 11118 c-32 -32 8 -80 48 -58 34 18 19 70 -20 70 -9 0 -21 -5
-28 -12z"/>
<path d="M3594 10816 c-12 -31 0 -51 31 -51 27 0 30 3 30 30 0 25 -4 30 -28
33 -17 2 -29 -2 -33 -12z"/>
<path d="M11115 10811 c-9 -30 5 -51 35 -51 30 0 44 21 35 51 -4 13 -16 19
-35 19 -19 0 -31 -6 -35 -19z"/>
<path d="M3605 10527 c-10 -8 -16 -23 -13 -38 2 -19 9 -24 33 -24 25 0 31 4
33 27 4 34 -26 54 -53 35z"/>
<path d="M11125 10524 c-19 -20 -16 -43 8 -58 20 -13 50 2 55 26 3 16 -23 48
-38 48 -5 0 -16 -7 -25 -16z"/>
<path d="M3600 10226 c-6 -8 -10 -25 -8 -38 2 -18 9 -23 33 -23 24 0 31 5 33
23 4 25 -13 52 -33 52 -7 0 -18 -7 -25 -14z"/>
<path d="M11126 10227 c-21 -16 -18 -45 7 -61 37 -23 77 35 41 61 -10 7 -21
13 -24 13 -3 0 -14 -6 -24 -13z"/>
<path d="M3603 9933 c-21 -8 -16 -61 6 -68 30 -9 51 5 51 35 0 33 -24 47 -57
33z"/>
<path d="M11120 9925 c-26 -32 13 -81 48 -59 34 22 22 74 -18 74 -10 0 -23 -7
-30 -15z"/>
<path d="M3597 9634 c-13 -13 -7 -51 9 -65 23 -19 49 1 49 37 0 24 -5 30 -25
32 -14 2 -29 0 -33 -4z"/>
<path d="M11122 9628 c-32 -32 8 -80 48 -58 34 18 19 70 -20 70 -9 0 -21 -5
-28 -12z"/>
<path d="M3597 9334 c-14 -14 -7 -53 12 -63 26 -14 54 8 49 40 -2 17 -10 25
-28 27 -14 2 -29 0 -33 -4z"/>
<path d="M11120 9325 c-23 -28 9 -72 45 -59 36 14 24 74 -15 74 -10 0 -23 -7
-30 -15z"/>
<path d="M3594 9026 c-12 -31 0 -51 31 -51 27 0 30 3 30 30 0 25 -4 30 -28 33
-17 2 -29 -2 -33 -12z"/>
<path d="M11115 9021 c-9 -30 5 -51 35 -51 30 0 44 21 35 51 -4 13 -16 19 -35
19 -19 0 -31 -6 -35 -19z"/>
<path d="M3605 8737 c-10 -8 -16 -23 -13 -38 2 -19 9 -24 33 -24 25 0 31 4 33
27 4 34 -26 54 -53 35z"/>
<path d="M11125 8734 c-19 -20 -16 -43 8 -58 20 -13 50 2 55 26 3 16 -23 48
-38 48 -5 0 -16 -7 -25 -16z"/>
<path d="M3600 8436 c-6 -8 -10 -25 -8 -38 2 -18 9 -23 33 -23 24 0 31 5 33
23 4 25 -13 52 -33 52 -7 0 -18 -7 -25 -14z"/>
<path d="M11126 8437 c-21 -16 -18 -45 7 -61 37 -23 77 35 41 61 -10 7 -21 13
-24 13 -3 0 -14 -6 -24 -13z"/>
<path d="M810 8144 c0 -9 5 -14 12 -12 18 6 21 28 4 28 -9 0 -16 -7 -16 -16z"/>
<path d="M0 8055 c0 -57 4 -95 10 -95 6 0 10 33 10 78 l0 77 50 -77 c68 -106
80 -104 80 17 0 76 -3 95 -15 95 -11 0 -15 -16 -17 -67 l-3 -68 -42 68 c-60
96 -73 91 -73 -28z"/>
<path d="M482 8073 c4 -64 9 -80 28 -95 32 -26 76 -23 105 7 22 21 25 33 25
95 0 56 -3 70 -15 70 -12 0 -15 -14 -15 -68 0 -75 -9 -92 -52 -92 -35 0 -48
28 -48 106 0 43 -3 54 -16 54 -14 0 -16 -10 -12 -77z"/>
<path d="M1242 8058 c2 -62 7 -93 16 -96 9 -3 12 20 12 92 0 80 -3 96 -15 96
-13 0 -15 -15 -13 -92z"/>
<path d="M1312 8058 l3 -93 73 -3 c59 -2 72 0 72 13 0 12 -13 15 -60 15 l-60
0 0 30 c0 30 1 30 55 30 30 0 55 5 55 10 0 6 -25 10 -55 10 -54 0 -55 0 -55
30 l0 30 60 0 c33 0 60 4 60 10 0 6 -32 10 -75 10 l-76 0 3 -92z"/>
<path d="M1492 8058 l3 -93 73 -3 c59 -2 72 0 72 13 0 12 -13 15 -60 15 l-60
0 0 30 c0 30 1 30 55 30 30 0 55 5 55 10 0 6 -25 10 -55 10 -54 0 -55 0 -55
30 0 30 1 30 55 30 30 0 55 5 55 10 0 6 -30 10 -70 10 l-71 0 3 -92z"/>
<path d="M1670 8055 l0 -96 73 3 c85 4 93 22 12 26 -54 3 -55 4 -55 32 0 29 1
30 50 30 28 0 50 5 50 10 0 6 -22 10 -50 10 -49 0 -50 1 -50 30 0 30 1 30 55
30 30 0 55 5 55 10 0 6 -30 10 -70 10 l-70 0 0 -95z"/>
<path d="M1932 8138 c-15 -15 -16 -54 -2 -63 6 -4 3 -16 -7 -31 -33 -52 29
-105 86 -73 32 18 39 54 15 80 -10 11 -12 19 -6 19 16 0 15 53 0 68 -7 7 -26
12 -43 12 -17 0 -36 -5 -43 -12z m72 -24 c7 -19 -10 -44 -29 -44 -19 0 -36 25
-29 44 3 9 16 16 29 16 13 0 26 -7 29 -16z m4 -96 c2 -19 -2 -28 -18 -33 -24
-8 -50 10 -50 35 0 24 10 31 40 28 19 -2 26 -10 28 -30z"/>
<path d="M2076 8128 c-24 -34 -21 -123 4 -148 26 -26 62 -25 86 1 23 26 27
127 5 152 -20 25 -76 22 -95 -5z m72 -10 c18 -18 15 -103 -4 -122 -19 -19 -26
-20 -42 -4 -13 13 -17 120 -5 131 10 11 38 8 51 -5z"/>
<path d="M2227 8132 c-21 -23 -21 -32 -3 -32 8 0 17 7 20 16 9 24 50 14 54
-15 3 -18 -8 -34 -42 -66 -65 -59 -62 -75 14 -75 47 0 60 3 60 15 0 11 -12 15
-46 15 l-47 0 47 43 c47 44 54 63 36 98 -14 25 -71 26 -93 1z"/>
<path d="M2460 8130 c-14 -10 -22 -22 -18 -26 4 -4 14 -1 23 6 13 11 15 4 15
-54 0 -59 -2 -66 -20 -66 -11 0 -20 -7 -20 -15 0 -12 20 -14 120 -12 72 1 120
6 120 12 1 6 -8 11 -20 13 -18 3 -20 11 -20 83 0 61 -3 79 -14 79 -19 0 -63
-37 -54 -46 4 -4 14 -1 23 6 13 11 15 5 15 -53 0 -61 -1 -65 -25 -69 -14 -3
-36 -3 -50 0 -24 4 -25 7 -25 83 0 86 -6 93 -50 59z"/>
<path d="M3603 8143 c-21 -8 -16 -61 6 -68 30 -9 51 5 51 35 0 33 -24 47 -57
33z"/>
<path d="M11120 8135 c-26 -32 13 -81 48 -59 34 22 22 74 -18 74 -10 0 -23 -7
-30 -15z"/>
<path d="M340 8126 c0 -8 -6 -17 -12 -19 -10 -4 -10 -7 -1 -14 6 -5 13 -35 15
-68 3 -53 5 -60 26 -63 25 -4 30 13 7 22 -11 4 -15 20 -15 56 0 38 4 50 15 50
8 0 15 5 15 10 0 6 -7 10 -15 10 -8 0 -15 7 -15 15 0 8 -4 15 -10 15 -5 0 -10
-6 -10 -14z"/>
<path d="M200 8090 c-42 -42 -13 -130 43 -130 37 0 58 22 64 67 4 33 1 45 -16
62 -26 26 -65 27 -91 1z m69 -14 c17 -20 10 -77 -11 -89 -24 -16 -48 8 -48 47
0 49 34 73 59 42z"/>
<path d="M688 8099 c-21 -12 -24 -42 -5 -56 6 -6 25 -13 40 -17 20 -5 27 -12
25 -24 -4 -18 -29 -21 -62 -7 -14 6 -18 5 -14 -6 8 -23 54 -34 83 -21 40 18
31 62 -14 77 -19 6 -36 16 -38 22 -7 19 18 26 43 12 30 -16 46 -2 20 17 -23
16 -54 18 -78 3z"/>
<path d="M810 8035 c0 -57 3 -76 13 -72 8 2 12 26 12 72 0 46 -4 70 -12 73
-10 3 -13 -16 -13 -73z"/>
<path d="M868 8103 c-2 -5 -2 -38 0 -75 4 -77 22 -93 22 -20 0 100 57 114 62
16 2 -35 8 -59 16 -62 9 -3 12 14 12 60 0 68 -10 88 -45 88 -12 0 -26 -5 -33
-12 -9 -9 -12 -9 -12 0 0 13 -17 17 -22 5z"/>
<path d="M1025 8094 c-20 -21 -20 -98 1 -118 18 -19 45 -21 62 -4 9 9 12 7 12
-10 0 -27 -26 -39 -51 -24 -24 15 -29 15 -29 -2 0 -16 21 -26 55 -26 39 0 55
35 55 120 l0 75 -45 2 c-29 1 -51 -4 -60 -13z m63 -16 c19 -19 15 -76 -5 -86
-30 -16 -43 -3 -43 42 0 56 19 73 48 44z"/>
<path d="M9040 8028 c-52 -28 -48 -128 7 -149 59 -22 113 15 113 77 0 61 -65
100 -120 72z m78 -30 c7 -7 12 -26 12 -43 0 -38 -16 -55 -50 -55 -34 0 -50 17
-50 55 0 38 16 55 50 55 14 0 31 -5 38 -12z"/>
<path d="M8850 7955 c0 -88 18 -102 22 -17 l3 57 35 -57 c21 -36 42 -58 52
-58 16 0 18 10 18 75 0 60 -3 75 -15 75 -12 0 -15 -13 -15 -57 l0 -57 -36 57
c-50 80 -64 76 -64 -18z"/>
<path d="M2370 7980 c0 -13 5 -20 13 -17 6 2 12 10 12 17 0 7 -6 15 -12 18 -8
2 -13 -5 -13 -18z"/>
<path d="M3597 7844 c-13 -13 -7 -51 9 -65 23 -19 49 1 49 37 0 24 -5 30 -25
32 -14 2 -29 0 -33 -4z"/>
<path d="M11122 7838 c-32 -32 8 -80 48 -58 34 18 19 70 -20 70 -9 0 -21 -5
-28 -12z"/>
<path d="M711 7808 c-38 -125 -48 -189 -25 -166 5 6 54 176 54 190 0 21 -20 4
-29 -24z"/>
<path d="M1810 7739 c0 -76 3 -100 13 -97 7 3 13 27 15 61 2 46 6 57 24 63 28
9 38 -10 38 -73 0 -65 15 -69 24 -8 10 64 -9 100 -52 100 -28 0 -32 3 -32 27
0 18 -5 28 -15 28 -12 0 -15 -18 -15 -101z"/>
<path d="M162 7738 c2 -62 7 -93 16 -96 8 -2 12 9 12 37 0 38 2 41 28 41 23 0
33 -8 51 -40 12 -22 29 -40 37 -40 19 0 17 10 -6 40 -24 31 -25 39 -4 55 22
16 21 65 -2 82 -10 7 -43 13 -76 13 l-59 0 3 -92z m109 62 c41 -23 10 -60 -50
-60 -29 0 -31 3 -31 35 0 32 2 35 31 35 17 0 39 -5 50 -10z"/>
<path d="M330 7820 c0 -5 13 -10 30 -10 l29 0 3 -82 c2 -54 7 -83 16 -86 9 -3
12 18 12 82 l0 86 35 0 c19 0 35 5 35 10 0 6 -33 10 -80 10 -47 0 -80 -4 -80
-10z"/>
<path d="M526 7817 c-11 -8 -17 -23 -14 -37 3 -24 26 -40 83 -57 39 -11 44
-39 10 -55 -22 -10 -32 -9 -61 7 -42 22 -58 11 -24 -17 45 -37 140 -10 140 39
0 21 -38 53 -63 53 -33 0 -62 23 -54 44 8 21 60 21 77 1 10 -12 16 -13 24 -5
30 30 -80 55 -118 27z"/>
<path d="M787 7810 c-33 -27 -42 -69 -23 -114 19 -46 54 -63 103 -50 36 9 64
37 50 50 -4 4 -15 0 -25 -9 -22 -20 -75 -22 -91 -4 -6 8 -14 27 -17 43 -11 58
62 110 96 69 14 -17 40 -20 40 -6 0 18 -44 41 -76 41 -17 0 -43 -9 -57 -20z"/>
<path d="M940 7820 c0 -5 14 -10 30 -10 l30 0 0 -86 c0 -64 3 -85 13 -82 8 3
13 32 15 86 l3 82 29 0 c17 0 30 5 30 10 0 6 -32 10 -75 10 -43 0 -75 -4 -75
-10z"/>
<path d="M1125 7806 c-13 -19 -14 -29 -6 -45 11 -20 21 -24 79 -36 26 -5 32
-11 30 -27 -5 -36 -33 -45 -73 -24 -42 23 -60 12 -26 -15 46 -38 131 -14 131
36 0 27 -27 48 -75 60 -35 8 -48 24 -33 42 14 18 53 16 72 -3 23 -22 42 -7 20
17 -27 29 -99 26 -119 -5z"/>
<path d="M1370 7735 l0 -96 73 3 c85 4 93 22 12 26 -54 3 -55 4 -55 32 0 29 1
30 50 30 28 0 50 5 50 10 0 6 -22 10 -50 10 -49 0 -50 1 -50 30 0 30 1 30 55
30 30 0 55 5 55 10 0 6 -30 10 -70 10 l-70 0 0 -95z"/>
<path d="M1552 7752 l22 -39 -23 -32 c-30 -41 -17 -55 16 -17 l25 29 23 -29
c31 -39 43 -24 15 20 l-22 36 21 29 c24 34 26 41 8 41 -7 0 -20 -12 -28 -27
l-17 -26 -17 26 c-9 15 -24 27 -31 27 -11 0 -9 -9 8 -38z"/>
<path d="M1692 7774 c-44 -31 -18 -134 34 -134 24 0 54 19 54 35 0 19 -9 19
-32 -1 -25 -24 -48 -2 -48 46 0 43 23 60 50 35 21 -19 30 -19 30 0 0 15 -29
35 -52 35 -8 0 -24 -7 -36 -16z"/>
<path d="M1970 7775 c-18 -22 -4 -31 24 -16 26 15 46 8 46 -15 0 -9 -11 -14
-33 -14 -38 0 -57 -15 -57 -45 0 -40 50 -61 78 -33 8 8 15 8 27 -2 12 -10 19
-10 27 -2 9 9 9 12 0 12 -8 0 -12 18 -12 49 0 32 -6 55 -16 65 -20 20 -68 21
-84 1z m70 -80 c0 -20 -39 -40 -52 -27 -6 6 -8 18 -5 26 8 20 57 21 57 1z"/>
<path d="M2104 7776 c-10 -25 1 -129 14 -134 8 -2 12 11 12 45 0 100 57 116
62 17 2 -35 8 -59 16 -62 9 -3 12 14 12 60 0 68 -10 88 -45 88 -12 0 -26 -5
-33 -12 -9 -9 -12 -9 -12 0 0 16 -19 15 -26 -2z"/>
<path d="M2268 7778 c-34 -28 -31 -110 5 -129 14 -8 26 -8 43 0 21 9 24 8 24
-10 0 -26 -25 -35 -56 -19 -29 16 -42 7 -24 -15 9 -11 26 -15 49 -13 47 4 61
32 61 126 0 57 -3 72 -15 72 -8 0 -15 -5 -15 -12 0 -9 -3 -9 -12 0 -15 15 -40
15 -60 0z m60 -20 c29 -29 1 -105 -33 -91 -21 7 -30 50 -16 79 12 26 30 31 49
12z"/>
<path d="M2424 7782 c-16 -10 -34 -48 -34 -70 0 -11 9 -31 21 -46 25 -32 68
-35 94 -6 16 17 16 20 2 20 -9 0 -19 -4 -22 -10 -10 -17 -44 -11 -55 9 -15 30
-14 31 40 31 41 0 50 3 50 18 0 46 -59 79 -96 54z m50 -18 c30 -12 18 -34 -19
-34 -37 0 -43 8 -23 28 14 14 20 14 42 6z"/>
<path d="M8980 7452 c0 -242 -3 -331 -12 -340 -9 -9 -179 -12 -705 -12 -609 0
-693 -2 -693 -15 0 -13 84 -15 694 -15 382 0 702 3 711 6 41 16 45 48 45 384
0 313 0 320 -20 320 -20 0 -20 -7 -20 -328z"/>
<path d="M3597 7544 c-14 -14 -7 -53 12 -63 26 -14 54 8 49 40 -2 17 -10 25
-28 27 -14 2 -29 0 -33 -4z"/>
<path d="M11120 7535 c-23 -28 9 -72 45 -59 36 14 24 74 -15 74 -10 0 -23 -7
-30 -15z"/>
<path d="M3594 7236 c-12 -31 0 -51 31 -51 27 0 30 3 30 30 0 25 -4 30 -28 33
-17 2 -29 -2 -33 -12z"/>
<path d="M11115 7231 c-9 -30 5 -51 35 -51 30 0 44 21 35 51 -4 13 -16 19 -35
19 -19 0 -31 -6 -35 -19z"/>
<path d="M3605 6947 c-10 -8 -16 -23 -13 -38 2 -19 9 -24 33 -24 25 0 31 4 33
27 4 34 -26 54 -53 35z"/>
<path d="M11125 6944 c-19 -20 -16 -43 8 -58 20 -13 50 2 55 26 3 16 -23 48
-38 48 -5 0 -16 -7 -25 -16z"/>
<path d="M3600 6646 c-6 -8 -10 -25 -8 -38 2 -18 9 -23 33 -23 24 0 31 5 33
23 4 25 -13 52 -33 52 -7 0 -18 -7 -25 -14z"/>
<path d="M11126 6647 c-36 -26 4 -84 42 -61 24 16 27 45 6 61 -10 7 -21 13
-24 13 -3 0 -14 -6 -24 -13z"/>
<path d="M3603 6353 c-21 -8 -16 -61 6 -68 30 -9 51 5 51 35 0 33 -24 47 -57
33z"/>
<path d="M11120 6345 c-26 -32 13 -81 48 -59 34 22 22 74 -18 74 -10 0 -23 -7
-30 -15z"/>
<path d="M7627 6203 c-12 -11 -8 -23 8 -23 8 0 15 7 15 15 0 16 -12 20 -23 8z"/>
<path d="M10166 6202 c-4 -7 -16 -45 -27 -85 -11 -39 -22 -80 -25 -89 -3 -11
0 -18 8 -18 8 0 22 33 37 89 22 85 25 132 7 103z"/>
<path d="M7300 6126 c0 -91 17 -116 78 -116 59 0 76 25 76 112 1 48 -3 72 -11
75 -10 3 -13 -11 -13 -54 0 -67 -17 -107 -45 -111 -38 -5 -50 14 -55 89 -3 45
-10 74 -17 77 -10 3 -13 -16 -13 -72z"/>
<path d="M8060 6106 c0 -80 3 -96 15 -96 13 0 15 15 13 92 -2 62 -7 93 -15 96
-10 3 -13 -20 -13 -92z"/>
<path d="M8130 6105 l0 -95 75 0 c43 0 75 4 75 10 0 6 -27 10 -60 10 l-60 0 0
30 c0 29 1 30 50 30 38 0 50 4 50 15 0 11 -12 15 -50 15 -47 0 -50 2 -50 25 0
24 3 25 55 25 42 0 55 3 55 15 0 12 -14 15 -70 15 l-70 0 0 -95z"/>
<path d="M8310 6105 l0 -95 75 0 c43 0 75 4 75 10 0 6 -27 10 -60 10 l-60 0 0
30 c0 29 1 30 50 30 38 0 50 4 50 15 0 11 -12 15 -50 15 -47 0 -50 2 -50 25 0
24 3 25 56 25 40 0 55 3 52 13 -3 7 -29 13 -71 15 l-67 3 0 -96z"/>
<path d="M8487 6194 c-4 -4 -7 -47 -7 -96 l0 -88 75 0 c43 0 75 4 75 10 0 6
-27 10 -60 10 -60 0 -60 0 -60 29 0 29 2 30 52 33 74 4 77 28 4 28 -53 0 -56
1 -56 25 0 22 4 24 55 27 30 2 56 8 58 13 2 11 -125 20 -136 9z"/>
<path d="M8747 6182 c-20 -22 -22 -43 -5 -60 9 -9 9 -15 0 -24 -7 -7 -12 -24
-12 -38 0 -36 17 -50 60 -50 43 0 60 14 60 50 0 14 -5 31 -12 38 -9 9 -9 15 0
24 19 19 14 45 -10 62 -30 21 -61 20 -81 -2z m68 -32 c0 -18 -6 -26 -23 -28
-24 -4 -38 18 -28 44 3 9 15 14 28 12 17 -2 23 -10 23 -28z m-1 -66 c18 -18
18 -17 10 -38 -9 -22 -51 -20 -64 3 -7 15 -6 23 6 35 19 20 29 20 48 0z"/>
<path d="M8900 6182 c-29 -23 -37 -87 -17 -135 14 -33 20 -37 51 -37 47 0 66
28 66 97 0 81 -48 117 -100 75z m69 -37 c30 -61 -19 -149 -56 -99 -18 25 -17
99 3 119 21 21 36 15 53 -20z"/>
<path d="M9049 6181 c-13 -11 -21 -23 -17 -27 4 -4 14 -1 22 5 21 17 60 10 64
-12 2 -11 -14 -34 -41 -60 -24 -23 -47 -50 -50 -59 -6 -16 1 -18 58 -18 37 0
65 4 65 10 0 6 -20 10 -45 10 -25 0 -45 3 -45 7 0 4 18 24 40 44 30 28 40 44
40 67 0 50 -49 67 -91 33z"/>
<path d="M9283 6183 c-13 -8 -23 -23 -23 -31 0 -12 3 -13 12 -4 22 22 28 12
28 -53 0 -63 -1 -65 -25 -65 -14 0 -25 -4 -25 -10 0 -6 27 -10 60 -10 33 0 60
4 60 10 0 6 -9 10 -20 10 -17 0 -19 8 -22 82 -2 45 -7 83 -13 84 -5 2 -20 -4
-32 -13z"/>
<path d="M9412 6184 c-27 -19 -29 -38 -2 -29 19 6 20 2 20 -59 0 -64 -1 -66
-25 -66 -14 0 -25 -4 -25 -10 0 -6 27 -10 60 -10 33 0 60 4 60 10 0 6 -9 10
-20 10 -17 0 -19 8 -22 82 -2 45 -8 83 -13 85 -6 2 -20 -4 -33 -13z"/>
<path d="M9608 6194 c-5 -4 -8 -47 -8 -96 0 -72 3 -88 15 -88 10 0 15 11 15
35 0 32 2 35 30 35 23 0 35 -8 52 -35 13 -19 29 -35 36 -35 17 0 15 10 -8 45
-19 29 -19 29 0 48 23 21 25 46 6 72 -10 13 -30 20 -72 23 -33 2 -62 0 -66 -4z
m120 -48 c5 -24 -14 -36 -60 -36 -36 0 -38 2 -38 31 0 30 1 30 47 27 37 -2 49
-7 51 -22z"/>
<path d="M9777 6194 c-12 -12 4 -24 34 -24 l29 0 0 -80 c0 -64 3 -80 15 -80
12 0 15 16 15 80 l0 80 30 0 c20 0 30 5 30 15 0 12 -15 15 -73 15 -41 0 -77
-3 -80 -6z"/>
<path d="M9970 6180 c-11 -11 -20 -24 -20 -28 0 -22 33 -48 72 -57 32 -8 44
-16 46 -33 4 -28 -38 -40 -76 -21 -15 7 -30 15 -34 17 -18 8 -6 -28 11 -38 55
-29 131 -2 131 47 0 27 -20 43 -64 50 -45 7 -64 27 -46 48 16 19 41 19 66 0
25 -19 34 -19 34 0 0 35 -89 46 -120 15z"/>
<path d="M10245 6188 c-33 -19 -44 -41 -45 -84 0 -61 29 -94 84 -94 32 0 48 6
65 24 28 30 10 45 -19 16 -24 -24 -48 -25 -78 -4 -24 17 -30 70 -12 105 13 23
71 26 90 5 6 -8 19 -12 27 -9 13 5 11 10 -11 30 -29 25 -69 29 -101 11z"/>
<path d="M10387 6194 c-15 -15 -6 -24 23 -24 l30 0 0 -80 c0 -64 3 -80 15 -80
12 0 15 15 15 79 l0 80 33 3 c17 2 32 8 32 13 0 11 -137 20 -148 9z"/>
<path d="M10582 6184 c-16 -11 -22 -24 -20 -42 2 -22 11 -30 51 -43 61 -20 74
-33 57 -54 -16 -19 -64 -20 -80 0 -13 16 -40 20 -40 7 0 -41 105 -57 140 -22
11 11 20 23 20 28 0 22 -35 51 -75 61 -34 8 -45 16 -45 30 0 11 9 23 20 26 23
7 60 -2 60 -16 0 -5 7 -9 15 -9 22 0 18 17 -7 34 -29 20 -67 20 -96 0z"/>
<path d="M7514 6150 c-45 -18 -36 -57 18 -76 18 -6 33 -17 33 -25 0 -18 -42
-24 -61 -8 -19 16 -30 4 -14 -16 16 -20 84 -20 100 0 19 23 0 56 -40 69 -18 6
-36 17 -38 25 -4 11 4 13 37 8 46 -6 55 8 15 23 -14 6 -26 10 -27 9 -1 0 -11
-4 -23 -9z"/>
<path d="M7731 6151 c-7 -5 -22 -6 -32 -4 -17 5 -19 -1 -19 -66 0 -55 3 -71
15 -71 10 0 15 15 17 58 3 53 5 57 28 57 23 0 25 -4 28 -57 2 -43 7 -58 17
-58 25 0 20 105 -5 130 -22 22 -29 24 -49 11z"/>
<path d="M7853 6150 c-29 -12 -42 -74 -21 -109 11 -21 21 -26 52 -25 29 1 36
-2 32 -13 -3 -8 -6 -17 -6 -19 0 -9 -47 -3 -57 7 -8 8 -13 7 -18 -1 -19 -30
52 -49 85 -22 20 16 24 30 28 100 5 81 4 82 -19 81 -13 -1 -31 1 -39 4 -8 3
-25 2 -37 -3z m59 -45 c8 -19 8 -31 0 -50 -13 -28 -47 -34 -56 -9 -8 21 -8 69
1 77 15 15 44 5 55 -18z"/>
<path d="M7620 6080 c0 -56 3 -70 15 -70 12 0 15 14 15 70 0 56 -3 70 -15 70
-12 0 -15 -14 -15 -70z"/>
<path d="M3597 6054 c-13 -13 -7 -51 9 -65 23 -19 49 1 49 37 0 24 -5 30 -25
32 -14 2 -29 0 -33 -4z"/>
<path d="M11122 6048 c-32 -32 8 -80 48 -58 34 18 19 70 -20 70 -9 0 -21 -5
-28 -12z"/>
<path d="M9180 6025 c0 -8 7 -15 15 -15 8 0 15 7 15 15 0 8 -7 15 -15 15 -8 0
-15 -7 -15 -15z"/>
<path d="M8870 5789 c0 -76 3 -100 13 -96 7 2 11 18 9 40 -4 43 12 77 37 77
23 0 31 -19 31 -76 0 -24 5 -44 10 -44 6 0 10 28 10 65 0 59 -2 66 -24 76 -17
8 -29 8 -45 0 -20 -11 -21 -9 -21 24 0 19 -4 35 -10 35 -6 0 -10 -40 -10 -101z"/>
<path d="M8430 5785 l0 -95 75 0 c43 0 75 4 75 10 0 6 -27 10 -60 10 l-60 0 0
30 c0 29 1 30 50 30 38 0 50 4 50 15 0 11 -12 15 -50 15 -47 0 -50 2 -50 25 0
24 3 25 56 25 40 0 55 3 52 13 -3 7 -29 13 -71 15 l-67 3 0 -96z"/>
<path d="M8770 5833 c-40 -14 -56 -96 -24 -128 21 -20 73 -16 88 7 15 24 -3
37 -19 15 -24 -33 -50 -17 -53 31 -4 48 16 64 50 43 29 -18 37 -2 9 20 -24 20
-27 21 -51 12z"/>
<path d="M9038 5829 c-10 -5 -18 -17 -18 -24 0 -18 5 -18 29 -3 20 12 51 5 51
-12 0 -5 -13 -10 -28 -10 -42 0 -64 -21 -60 -55 2 -24 8 -31 31 -33 16 -2 34
2 42 8 9 7 15 8 20 0 8 -13 45 -13 45 0 0 6 -4 10 -10 10 -5 0 -10 20 -10 45
0 68 -43 103 -92 74z m62 -82 c0 -19 -21 -37 -42 -37 -18 0 -25 29 -11 43 12
12 53 7 53 -6z"/>
<path d="M9211 5831 c-7 -5 -22 -6 -32 -4 -17 5 -19 -1 -19 -66 0 -56 3 -71
15 -71 11 0 15 12 15 44 0 60 8 76 36 76 23 0 24 -3 24 -60 0 -47 3 -60 15
-60 12 0 15 13 15 59 0 76 -27 108 -69 82z"/>
<path d="M9338 5833 c-36 -9 -47 -93 -16 -130 13 -17 50 -17 67 0 10 10 12 7
9 -13 -3 -23 -7 -25 -48 -23 l-45 2 24 -20 c29 -24 43 -24 72 0 21 17 24 30
27 100 4 80 4 81 -19 80 -13 -1 -31 1 -39 3 -8 3 -22 4 -32 1z m58 -49 c8 -30
-10 -74 -29 -74 -31 0 -47 43 -31 84 10 27 53 20 60 -10z"/>
<path d="M9493 5830 c-65 -26 -52 -140 17 -140 38 0 60 9 60 26 0 17 -5 17
-30 2 -15 -9 -25 -10 -37 -2 -35 22 -26 34 26 34 47 0 51 2 51 23 0 46 -44 74
-87 57z m55 -37 c2 -9 -8 -13 -32 -13 -28 0 -34 3 -29 16 7 18 54 16 61 -3z"/>
<path d="M8609 5801 c26 -35 26 -40 1 -71 -23 -30 -25 -40 -7 -40 8 0 20 11
27 25 7 14 16 25 20 25 4 0 13 -11 20 -25 7 -14 19 -25 27 -25 18 0 16 10 -7
40 -25 31 -25 36 1 71 16 22 17 29 6 29 -8 0 -22 -10 -31 -22 l-16 -23 -16 23
c-9 12 -23 22 -31 22 -11 0 -10 -7 6 -29z"/>
<path d="M3597 5754 c-14 -14 -7 -53 12 -63 26 -14 54 8 49 40 -2 17 -10 25
-28 27 -14 2 -29 0 -33 -4z"/>
<path d="M11120 5745 c-23 -28 9 -72 45 -59 36 14 24 74 -15 74 -10 0 -23 -7
-30 -15z"/>
<path d="M5533 5510 c-15 -6 -23 -18 -23 -34 0 -28 10 -37 60 -51 38 -12 45
-31 17 -49 -13 -8 -24 -7 -49 7 -38 22 -52 12 -19 -14 40 -33 111 -18 111 25
0 27 -14 42 -52 51 -40 10 -54 31 -30 44 13 7 26 6 45 -4 28 -14 46 -5 24 13
-19 16 -60 22 -84 12z"/>
<path d="M5200 5504 c0 -3 10 -20 22 -37 12 -17 25 -48 28 -69 6 -49 24 -54
28 -9 2 18 14 51 28 72 27 43 28 49 14 49 -5 0 -20 -16 -33 -35 l-24 -35 -19
35 c-16 30 -44 48 -44 29z"/>
<path d="M5360 5430 l0 -80 60 0 c47 0 60 3 60 15 0 11 -12 15 -50 15 -47 0
-50 2 -50 25 0 23 4 25 45 25 25 0 45 5 45 10 0 6 -20 10 -45 10 -38 0 -45 3
-45 20 0 17 7 20 50 20 28 0 50 5 50 10 0 6 -27 10 -60 10 l-60 0 0 -80z"/>
<path d="M3594 5446 c-12 -31 0 -51 31 -51 27 0 30 3 30 30 0 25 -4 30 -28 33
-17 2 -29 -2 -33 -12z"/>
<path d="M11115 5441 c-9 -30 5 -51 35 -51 30 0 44 21 35 51 -4 13 -16 19 -35
19 -19 0 -31 -6 -35 -19z"/>
<path d="M11125 5154 c-19 -20 -16 -43 8 -58 20 -13 50 2 55 26 3 16 -23 48
-38 48 -5 0 -16 -7 -25 -16z"/>
<path d="M3657 5093 c-14 -13 -6 -53 12 -63 15 -7 24 -5 41 8 19 16 21 22 11
40 -11 21 -50 30 -64 15z"/>
<path d="M3950 5081 c-8 -17 -7 -24 10 -41 28 -28 63 -11 58 28 -4 35 -51 44
-68 13z"/>
<path d="M4250 5085 c-23 -28 9 -72 45 -59 36 14 24 74 -15 74 -10 0 -23 -7
-30 -15z"/>
<path d="M4547 5094 c-14 -14 -7 -53 12 -63 26 -14 54 8 49 40 -2 17 -10 25
-28 27 -14 2 -29 0 -33 -4z"/>
<path d="M4842 5088 c-17 -17 -15 -32 7 -52 15 -14 24 -15 40 -6 22 11 26 26
15 54 -7 19 -45 21 -62 4z"/>
<path d="M5137 5093 c-14 -13 -6 -53 12 -63 15 -7 24 -5 41 8 19 16 21 22 11
40 -11 21 -50 30 -64 15z"/>
<path d="M5430 5081 c-8 -17 -7 -24 10 -41 28 -28 63 -11 58 28 -4 35 -51 44
-68 13z"/>
<path d="M5730 5085 c-23 -28 9 -72 45 -59 36 14 24 74 -15 74 -10 0 -23 -7
-30 -15z"/>
<path d="M6027 5094 c-14 -14 -7 -53 12 -63 26 -14 54 8 49 40 -2 17 -10 25
-28 27 -14 2 -29 0 -33 -4z"/>
<path d="M6322 5088 c-17 -17 -15 -32 7 -52 15 -14 24 -15 40 -6 22 11 26 26
15 54 -7 19 -45 21 -62 4z"/>
<path d="M6617 5093 c-14 -13 -6 -53 12 -63 15 -7 24 -5 41 8 19 16 21 22 11
40 -11 21 -50 30 -64 15z"/>
<path d="M6910 5081 c-8 -17 -7 -24 10 -41 28 -28 63 -11 58 28 -4 35 -51 44
-68 13z"/>
<path d="M7210 5085 c-23 -28 9 -72 45 -59 36 14 24 74 -15 74 -10 0 -23 -7
-30 -15z"/>
<path d="M7507 5094 c-14 -14 -7 -53 12 -63 26 -14 54 8 49 40 -2 17 -10 25
-28 27 -14 2 -29 0 -33 -4z"/>
<path d="M7802 5088 c-17 -17 -15 -32 7 -52 15 -14 24 -15 40 -6 22 11 26 26
15 54 -7 19 -45 21 -62 4z"/>
<path d="M8097 5093 c-14 -13 -6 -53 12 -63 15 -7 24 -5 41 8 19 16 21 22 11
40 -11 21 -50 30 -64 15z"/>
<path d="M8390 5081 c-8 -17 -7 -24 10 -41 28 -28 63 -11 58 28 -4 35 -51 44
-68 13z"/>
<path d="M8690 5085 c-23 -28 9 -72 45 -59 36 14 24 74 -15 74 -10 0 -23 -7
-30 -15z"/>
<path d="M8987 5094 c-14 -14 -7 -53 12 -63 26 -14 54 8 49 40 -2 17 -10 25
-28 27 -14 2 -29 0 -33 -4z"/>
<path d="M9282 5088 c-17 -17 -15 -32 7 -52 15 -14 24 -15 40 -6 22 11 26 26
15 54 -7 19 -45 21 -62 4z"/>
<path d="M9577 5093 c-14 -13 -6 -53 12 -63 15 -7 24 -5 41 8 19 16 21 22 11
40 -11 21 -50 30 -64 15z"/>
<path d="M9870 5081 c-8 -17 -7 -24 10 -41 28 -28 63 -11 58 28 -4 35 -51 44
-68 13z"/>
<path d="M10170 5085 c-23 -28 9 -72 45 -59 36 14 24 74 -15 74 -10 0 -23 -7
-30 -15z"/>
<path d="M10467 5094 c-14 -14 -7 -53 12 -63 26 -14 54 8 49 40 -2 17 -10 25
-28 27 -14 2 -29 0 -33 -4z"/>
<path d="M10762 5088 c-17 -17 -15 -32 7 -52 15 -14 24 -15 40 -6 22 11 26 26
15 54 -7 19 -45 21 -62 4z"/>
</g>
</svg>
